# xmcd
#
# Track frame offsets: 
#        150
#        10500
#        27075
#        47850
#        68325
#        86400
#        102075
#        117075
#        130500
#        153000
#        169275
#        186450
#        206925
#        221968
#        236700
#        261300
#
# Disc length: 3784 seconds
#
# Revision: 0
# Processed by: cddbd v1.5.2PL0 Copyright (c) Steve Scherf et al.
# Submitted via: ExactAudioCopyFreeDBPlugin 1.0
#
DISCID=d60ec610
DTITLE=Patricia Kaas - Kabaret
DYEAR=2009
DGENRE=Cabaret
TTITLE0=Addicte aux heroines
TTITLE1=La chance jamais ne dure
TTITLE2=Le jour se leve
TTITLE3=Une derniere fois
TTITLE4=Kabaret
TTITLE5=Faites entrer les clowns
TTITLE6=Falling In Love Again
TTITLE7=Pigalle (Interlude)
TTITLE8=Solo
TTITLE9=Je t'aime encore
TTITLE10=Et s'il fallait le faire
TTITLE11=Mon piano rouge
TTITLE12=Mne Nravitsya
TTITLE13=Hard Work
TTITLE14=September Song
TTITLE15=Still In Love
EXTD=
EXTT0=
EXTT1=
EXTT2=
EXTT3=
EXTT4=
EXTT5=
EXTT6=
EXTT7=
EXTT8=
EXTT9=
EXTT10=
EXTT11=
EXTT12=
EXTT13=
EXTT14=
EXTT15=
PLAYORDER=
